# xmcd
#
# Track frame offsets:
#	150
#	29756
#	51542
#	80377
#	100545
#	120849
#	145614
#	168811
#	191765
#
# Disc length: 3059 seconds
#
# Revision: 13
# Processed by: cddbd v1.5.2PL0 Copyright (c) Steve Scherf et al.
# Submitted via: Jack! The Knife 20 Magnifico
#
DISCID=6d0bf109
DTITLE=Death - Symbolic
DYEAR=1995
DGENRE=Metal
TTITLE0=Symbolic
TTITLE1=Zero Tolerance
TTITLE2=Empty Words
TTITLE3=Sacred Serenity
TTITLE4=1,000 Eyes
TTITLE5=Without Judgement
TTITLE6=Crystal Mountain
TTITLE7=Misanthrope
TTITLE8=Perennial Quest
EXTD=Jim Morris
EXTT0=Chuck Schuldiner
EXTT1=Chuck Schuldiner
EXTT2=Chuck Schuldiner
EXTT3=Chuck Schuldiner
EXTT4=Chuck Schuldiner
EXTT5=Chuck Schuldiner
EXTT6=Chuck Schuldiner
EXTT7=Chuck Schuldiner
EXTT8=Chuck Schuldiner
PLAYORDER=
